{
  "accessors": [
    {
      "bufferView": 2,
      "componentType": 5126,
      "count": 8069,
      "max": [
        0.566100001335144,
        0.44600000977516174,
        0.4438000023365021
      ],
      "min": [
        -0.7876999974250793,
        -0.3824000060558319,
        -0.43950000405311584
      ],
      "type": "VEC3"
    },
    {
      "bufferView": 2,
      "byteOffset": 96828,
      "componentType": 5126,
      "count": 8069,
      "max": [
        0.9999380707740784,
        0.9999833106994629,
        0.9999843835830688
      ],
      "min": [
        -0.9999642968177795,
        -0.9998378753662109,
        -0.9999827146530151
      ],
      "type": "VEC3"
    },
    {
      "bufferView": 3,
      "componentType": 5126,
      "count": 8069,
      "max": [
        0.9999720454216003,
        0.9993417263031006,
        0.9999343752861023,
        1.0
      ],
      "min": [
        -0.9991908669471741,
        -0.999893307685852,
        -0.9997280836105347,
        -1.0
      ],
      "type": "VEC4"
    },
    {
      "bufferView": 1,
      "componentType": 5126,
      "count": 8069,
      "max": [
        0.8208699822425842,
        0.9900000095367432
      ],
      "min": [
        0.009999999776482582,
        0.132860004901886
      ],
      "type": "VEC2"
    },
    {
      "bufferView": 0,
      "componentType": 5125,
      "count": 45498,
      "type": "SCALAR"
    },
    {
      "bufferView": 2,
      "byteOffset": 193656,
      "componentType": 5126,
      "count": 98,
      "max": [
        -0.43779999017715454,
        -0.05779999867081642,
        0.2379000037908554
      ],
      "min": [
        -0.6927000284194946,
        -0.33340001106262207,
        -0.24060000479221344
      ],
      "type": "VEC3"
    },
    {
      "bufferView": 2,
      "byteOffset": 194832,
      "componentType": 5126,
      "count": 98,
      "max": [
        0.9816209673881531,
        0.9873552918434143,
        0.9903519153594971
      ],
      "min": [
        -0.9817329049110413,
        -0.987341046333313,
        -0.9897657632827759
      ],
      "type": "VEC3"
    },
    {
      "bufferView": 1,
      "byteOffset": 64552,
      "componentType": 5126,
      "count": 98,
      "max": [
        0.9900000095367432,
        0.5731599926948547
      ],
      "min": [
        0.3711099922657013,
        0.08352000266313553
      ],
      "type": "VEC2"
    },
    {
      "bufferView": 0,
      "byteOffset": 181992,
      "componentType": 5125,
      "count": 504,
      "type": "SCALAR"
    }
  ],
  "asset": {
    "extras": {
      "author": "Animium 3d model (https://sketchfab.com/pelister)",
      "license": "CC-BY-4.0 (http://creativecommons.org/licenses/by/4.0/)",
      "source": "https://sketchfab.com/3d-models/cartoon-turtle-ddd382fba03b4732968dc43256a69201",
      "title": "Cartoon Turtle"
    },
    "generator": "Sketchfab-12.68.0",
    "version": "2.0"
  },
  "bufferViews": [
    {
      "buffer": 0,
      "byteLength": 184008,
      "name": "floatBufferViews",
      "target": 34963
    },
    {
      "buffer": 0,
      "byteLength": 65336,
      "byteOffset": 184008,
      "byteStride": 8,
      "name": "floatBufferViews",
      "target": 34962
    },
    {
      "buffer": 0,
      "byteLength": 196008,
      "byteOffset": 249344,
      "byteStride": 12,
      "name": "floatBufferViews",
      "target": 34962
    },
    {
      "buffer": 0,
      "byteLength": 129104,
      "byteOffset": 445352,
      "byteStride": 16,
      "name": "floatBufferViews",
      "target": 34962
    }
  ],
  "buffers": [
    {
      "byteLength": 574456,
      "uri": "scene.bin"
    }
  ],
  "images": [
    {
      "uri": "textures/body_baseColor.png"
    },
    {
      "uri": "textures/body_normal.png"
    }
  ],
  "materials": [
    {
      "doubleSided": true,
      "name": "body",
      "normalTexture": {
        "index": 1
      },
      "pbrMetallicRoughness": {
        "baseColorTexture": {
          "index": 0
        },
        "metallicFactor": 0.26,
        "roughnessFactor": 0.31
      }
    },
    {
      "doubleSided": true,
      "name": "eyes",
      "pbrMetallicRoughness": {
        "baseColorTexture": {
          "index": 0
        },
        "metallicFactor": 0.79,
        "roughnessFactor": 0.1
      }
    }
  ],
  "meshes": [
    {
      "name": "Object_0",
      "primitives": [
        {
          "attributes": {
            "NORMAL": 1,
            "POSITION": 0,
            "TANGENT": 2,
            "TEXCOORD_0": 3
          },
          "indices": 4,
          "material": 0,
          "mode": 4
        }
      ]
    },
    {
      "name": "Object_1",
      "primitives": [
        {
          "attributes": {
            "NORMAL": 6,
            "POSITION": 5,
            "TEXCOORD_0": 7
          },
          "indices": 8,
          "material": 1,
          "mode": 4
        }
      ]
    }
  ],
  "nodes": [
    {
      "children": [
        1
      ],
      "matrix": [
        1.0,
        0.0,
        0.0,
        0.0,
        0.0,
        -1.0,
        -2.220446049250313e-16,
        0.0,
        0.0,
        2.220446049250313e-16,
        -1.0,
        0.0,
        0.0,
        0.033950686454772956,
        -0.029649734497070306,
        1.0
      ],
      "name": "Sketchfab_model"
    },
    {
      "children": [
        2,
        3
      ],
      "name": "cartoon_turtle.obj.cleaner"
    },
    {
      "mesh": 0,
      "name": "Object_2"
    },
    {
      "mesh": 1,
      "name": "Object_3"
    }
  ],
  "samplers": [
    {
      "magFilter": 9729,
      "minFilter": 9987,
      "wrapS": 10497,
      "wrapT": 10497
    }
  ],
  "scene": 0,
  "scenes": [
    {
      "name": "Sketchfab_Scene",
      "nodes": [
        0
      ]
    }
  ],
  "textures": [
    {
      "sampler": 0,
      "source": 0
    },
    {
      "sampler": 0,
      "source": 1
    }
  ]
}
