{
  "accessors": [
    {
      "bufferView": 2,
      "componentType": 5126,
      "count": 842,
      "max": [
        0.4007146656513214,
        1.6296157836914063,
        4.413422584533691
      ],
      "min": [
        -0.4007146656513214,
        -1.4212684631347656,
        -0.39064544439315796
      ],
      "type": "VEC3"
    },
    {
      "bufferView": 2,
      "byteOffset": 10104,
      "componentType": 5126,
      "count": 842,
      "max": [
        0.9997509717941284,
        0.9365603923797607,
        0.6508180499076843
      ],
      "min": [
        -0.9997509717941284,
        -0.9466654062271118,
        -0.9515932202339172
      ],
      "type": "VEC3"
    },
    {
      "bufferView": 1,
      "componentType": 5126,
      "count": 842,
      "max": [
        0.0,
        0.0
      ],
      "min": [
        0.0,
        0.0
      ],
      "type": "VEC2"
    },
    {
      "bufferView": 0,
      "componentType": 5125,
      "count": 3432,
      "type": "SCALAR"
    },
    {
      "bufferView": 2,
      "byteOffset": 20208,
      "componentType": 5126,
      "count": 932,
      "max": [
        0.5901481509208679,
        1.1351577043533325,
        4.211832523345947
      ],
      "min": [
        -0.5901481509208679,
        -0.9074327945709229,
        -0.33727824687957764
      ],
      "type": "VEC3"
    },
    {
      "bufferView": 2,
      "byteOffset": 31392,
      "componentType": 5126,
      "count": 932,
      "max": [
        0.9995839595794678,
        0.9993513822555542,
        0.9396305084228516
      ],
      "min": [
        -0.9995839595794678,
        -0.9998836517333984,
        -0.9787301421165466
      ],
      "type": "VEC3"
    },
    {
      "bufferView": 1,
      "byteOffset": 6736,
      "componentType": 5126,
      "count": 932,
      "max": [
        0.0,
        0.0
      ],
      "min": [
        0.0,
        0.0
      ],
      "type": "VEC2"
    },
    {
      "bufferView": 0,
      "byteOffset": 13728,
      "componentType": 5125,
      "count": 3960,
      "type": "SCALAR"
    },
    {
      "bufferView": 2,
      "byteOffset": 42576,
      "componentType": 5126,
      "count": 1020,
      "max": [
        0.6220041513442993,
        0.7495061755180359,
        4.368886947631836
      ],
      "min": [
        -0.6220041513442993,
        -1.144350290298462,
        -0.5439910888671875
      ],
      "type": "VEC3"
    },
    {
      "bufferView": 2,
      "byteOffset": 54816,
      "componentType": 5126,
      "count": 1020,
      "max": [
        0.9999549388885498,
        0.999997615814209,
        0.785983145236969
      ],
      "min": [
        -0.9999549388885498,
        -0.9991127252578735,
        -0.9994716644287109
      ],
      "type": "VEC3"
    },
    {
      "bufferView": 1,
      "byteOffset": 14192,
      "componentType": 5126,
      "count": 1020,
      "max": [
        0.0,
        0.0
      ],
      "min": [
        0.0,
        0.0
      ],
      "type": "VEC2"
    },
    {
      "bufferView": 0,
      "byteOffset": 29568,
      "componentType": 5125,
      "count": 4296,
      "type": "SCALAR"
    }
  ],
  "asset": {
    "extras": {
      "author": "Costr (Viverna) (https://sketchfab.com/VivernaNeva)",
      "license": "CC-BY-4.0 (http://creativecommons.org/licenses/by/4.0/)",
      "source": "https://sketchfab.com/3d-models/fishes-aa31604aa3d446b59775dd9e5a08a9ce",
      "title": "Fishes"
    },
    "generator": "Sketchfab-12.65.0",
    "version": "2.0"
  },
  "bufferViews": [
    {
      "buffer": 0,
      "byteLength": 46752,
      "name": "floatBufferViews",
      "target": 34963
    },
    {
      "buffer": 0,
      "byteLength": 22352,
      "byteOffset": 46752,
      "byteStride": 8,
      "name": "floatBufferViews",
      "target": 34962
    },
    {
      "buffer": 0,
      "byteLength": 67056,
      "byteOffset": 69104,
      "byteStride": 12,
      "name": "floatBufferViews",
      "target": 34962
    }
  ],
  "buffers": [
    {
      "byteLength": 136160,
      "uri": "scene.bin"
    }
  ],
  "materials": [
    {
      "doubleSided": true,
      "name": "Scene_-_Root",
      "pbrMetallicRoughness": {
        "baseColorFactor": [
          0.22088135510999612,
          0.41831774154437745,
          0.44672920812723993,
          1.0
        ],
        "metallicFactor": 0.0,
        "roughnessFactor": 0.6
      }
    }
  ],
  "meshes": [
    {
      "name": "Object_0",
      "primitives": [
        {
          "attributes": {
            "NORMAL": 1,
            "POSITION": 0,
            "TEXCOORD_0": 2
          },
          "indices": 3,
          "material": 0,
          "mode": 4
        }
      ]
    },
    {
      "name": "Object_1",
      "primitives": [
        {
          "attributes": {
            "NORMAL": 5,
            "POSITION": 4,
            "TEXCOORD_0": 6
          },
          "indices": 7,
          "material": 0,
          "mode": 4
        }
      ]
    },
    {
      "name": "Object_2",
      "primitives": [
        {
          "attributes": {
            "NORMAL": 9,
            "POSITION": 8,
            "TEXCOORD_0": 10
          },
          "indices": 11,
          "material": 0,
          "mode": 4
        }
      ]
    }
  ],
  "nodes": [
    {
      "children": [
        1
      ],
      "matrix": [
        1.0,
        0.0,
        0.0,
        0.0,
        0.0,
        2.220446049250313e-16,
        -1.0,
        0.0,
        0.0,
        1.0,
        2.220446049250313e-16,
        0.0,
        0.0,
        0.0,
        0.0,
        1.0
      ],
      "name": "Sketchfab_model"
    },
    {
      "children": [
        2
      ],
      "name": "root"
    },
    {
      "children": [
        3,
        5,
        7
      ],
      "matrix": [
        1.0,
        0.0,
        0.0,
        0.0,
        0.0,
        2.220446049250313e-16,
        1.0,
        0.0,
        0.0,
        -1.0,
        2.220446049250313e-16,
        0.0,
        0.0,
        0.0,
        0.0,
        1.0
      ],
      "name": "GLTF_SceneRootNode"
    },
    {
      "children": [
        4
      ],
      "matrix": [
        0.7378937568943864,
        0.0,
        -0.6749168863914193,
        0.0,
        0.0,
        1.0,
        0.0,
        0.0,
        0.6749168863914193,
        0.0,
        0.7378937568943864,
        0.0,
        -0.8965843915939331,
        0.0,
        -1.8981409072875977,
        1.0
      ],
      "name": "Circle_1"
    },
    {
      "mesh": 0,
      "name": "Object_4"
    },
    {
      "children": [
        6
      ],
      "matrix": [
        1.1741175578286747,
        0.0,
        -0.7054081871603743,
        0.0,
        0.0,
        1.3697272539138794,
        0.0,
        0.0,
        0.7054081871603743,
        0.0,
        1.1741175578286747,
        0.0,
        -1.2256641387939453,
        0.0,
        -0.08662457764148712,
        1.0
      ],
      "name": "Circle.001_2"
    },
    {
      "mesh": 1,
      "name": "Object_6"
    },
    {
      "children": [
        8
      ],
      "matrix": [
        0.862439449729798,
        0.0,
        0.2268730749118224,
        0.0,
        -0.0,
        0.8917809128761292,
        0.0,
        0.0,
        -0.2268730749118224,
        -0.0,
        0.862439449729798,
        0.0,
        -2.9077768325805664,
        0.0,
        0.6334174871444702,
        1.0
      ],
      "name": "Circle.002_3"
    },
    {
      "mesh": 2,
      "name": "Object_8"
    }
  ],
  "scene": 0,
  "scenes": [
    {
      "name": "Sketchfab_Scene",
      "nodes": [
        0
      ]
    }
  ]
}
